<?xml version="1.0" encoding="utf-8"?>
<svg viewBox="84.604 226.892 539.793 113.336" xmlns="http://www.w3.org/2000/svg">
  <defs>
    <clipPath clipPathUnits="userSpaceOnUse" id="clipPath18">
      <path d="M 0,0 H 3939 V 2356 H 0 Z" id="path16"/>
    </clipPath>
    <clipPath clipPathUnits="userSpaceOnUse" id="clipPath24">
      <path d="m 1645.98,1847.58 c -140.21,0 -254.28,114.06 -254.28,254.28 0,140.2 114.07,254.27 254.28,254.27 140.2,0 254.27,-114.07 254.27,-254.27 0,-11.48 -9.31,-20.79 -20.79,-20.79 -11.48,0 -20.79,9.31 -20.79,20.79 0,117.28 -95.41,212.69 -212.69,212.69 -117.28,0 -212.7,-95.41 -212.7,-212.69 0,-117.29 95.42,-212.7 212.7,-212.7 11.48,0 20.79,-9.31 20.79,-20.79 0,-11.48 -9.31,-20.79 -20.79,-20.79 z" id="path22"/>
    </clipPath>
    <clipPath clipPathUnits="userSpaceOnUse" id="clipPath42">
      <path d="m 2293.11,1200.45 c -140.21,0 -254.28,114.07 -254.28,254.27 0,11.49 9.31,20.79 20.79,20.79 11.48,0 20.79,-9.3 20.79,-20.79 0,-117.28 95.42,-212.69 212.7,-212.69 117.28,0 212.69,95.41 212.69,212.69 0,117.28 -95.41,212.7 -212.69,212.7 -11.48,0 -20.79,9.31 -20.79,20.79 0,11.48 9.31,20.79 20.79,20.79 140.2,0 254.27,-114.07 254.27,-254.28 0,-140.2 -114.07,-254.27 -254.27,-254.27 z" id="path40"/>
    </clipPath>
    <clipPath clipPathUnits="userSpaceOnUse" id="clipPath58">
      <path d="m 1645.98,1200.45 c -140.21,0 -254.28,114.07 -254.28,254.27 0,140.21 114.07,254.28 254.28,254.28 11.48,0 20.79,-9.31 20.79,-20.79 0,-11.48 -9.31,-20.79 -20.79,-20.79 -117.28,0 -212.7,-95.42 -212.7,-212.7 0,-117.28 95.42,-212.69 212.7,-212.69 117.28,0 212.69,95.41 212.69,212.69 0,11.49 9.31,20.79 20.79,20.79 11.48,0 20.79,-9.3 20.79,-20.79 0,-140.2 -114.07,-254.27 -254.27,-254.27 z" id="path56"/>
    </clipPath>
    <clipPath clipPathUnits="userSpaceOnUse" id="clipPath76">
      <path d="m 1647.78,1563.05 c -5.32,0 -10.65,2.03 -14.7,6.09 -4.06,4.05 -6.09,9.38 -6.09,14.7 0,5.32 2.03,10.64 6.09,14.7 l 182.81,182.81 -182.81,182.81 c -8.12,8.13 -8.12,21.29 0,29.41 8.11,8.11 21.29,8.11 29.4,0 l 197.51,-197.52 c 4.06,-4.06 6.09,-9.38 6.09,-14.7 0,-5.32 -2.03,-10.64 -6.09,-14.7 l -197.51,-197.51 c -4.06,-4.06 -9.38,-6.09 -14.7,-6.09 z" id="path74"/>
    </clipPath>
    <clipPath clipPathUnits="userSpaceOnUse" id="clipPath92">
      <path d="m 2290.59,1563.05 c -5.32,0 -10.64,2.03 -14.7,6.09 l -197.51,197.51 c -4.06,4.06 -6.09,9.38 -6.09,14.7 0,5.32 2.03,10.64 6.09,14.7 l 197.51,197.52 c 8.11,8.11 21.29,8.11 29.4,0 4.06,-4.06 6.09,-9.38 6.09,-14.71 0,-5.32 -2.03,-10.64 -6.09,-14.7 l -182.81,-182.81 182.81,-182.81 c 8.12,-8.12 8.12,-21.29 0,-29.4 -4.06,-4.06 -9.38,-6.09 -14.7,-6.09 z" id="path90"/>
    </clipPath>
    <clipPath clipPathUnits="userSpaceOnUse" id="clipPath108">
      <path d="m 1969.19,1884.45 c -5.32,0 -10.65,2.03 -14.7,6.09 l -197.52,197.51 c -4.06,4.07 -6.09,9.38 -6.09,14.71 0,5.32 2.03,10.64 6.09,14.7 8.11,8.11 21.29,8.11 29.4,0 l 182.82,-182.82 182.81,182.82 c 8.11,8.11 21.29,8.11 29.4,0 8.12,-8.12 8.12,-21.28 0,-29.41 l -197.51,-197.51 c -4.06,-4.06 -9.38,-6.09 -14.7,-6.09 z" id="path106"/>
    </clipPath>
    <clipPath clipPathUnits="userSpaceOnUse" id="clipPath124">
      <path d="m 2166.7,1439.16 c -5.32,0 -10.64,2.03 -14.7,6.09 l -182.81,182.8 -182.82,-182.8 c -8.11,-8.12 -21.28,-8.12 -29.4,0 -8.12,8.11 -8.12,21.28 0,29.39 l 197.52,197.52 c 3.24,3.23 7.27,5.18 11.47,5.84 6.37,0.99 13.04,-0.96 17.93,-5.84 l 197.51,-197.52 c 4.06,-4.05 6.09,-9.37 6.09,-14.69 0,-5.32 -2.03,-10.64 -6.09,-14.7 -4.05,-4.06 -9.38,-6.09 -14.7,-6.09 z" id="path122"/>
    </clipPath>
    <clipPath clipPathUnits="userSpaceOnUse" id="clipPath152">
      <path d="m 2860.56,723.84 c -81.5,18.699 -158.47,36.359 -158.47,108.672 0,74.886 79.91,101.457 148.34,101.457 58.82,0 104.39,-17.637 152.35,-59 l 7.95,-6.848 v 58.051 l -1.73,1.437 c -31.92,26.61 -92.4,55.032 -166.39,55.032 -50.12,0 -96.34,-13.211 -130.13,-37.219 -38.64,-27.442 -59.06,-67.301 -59.06,-115.262 0,-107.57 102.37,-130.918 192.68,-151.519 79.72,-18.18 155.02,-35.36 155.02,-104.762 0,-65.59 -66.33,-113.188 -157.72,-113.188 -85.37,0 -153.79,41.989 -186.98,67.008 l -7.69,5.813 V 475.93 l 2.2,-1.41 c 44.18,-28.508 114.13,-62.5 196.37,-62.5 117.34,0 202.5,69.39 202.5,164.98 0,103.422 -96.21,125.488 -189.24,146.84 z" id="path150"/>
    </clipPath>
    <linearGradient x1="0" y1="0" x2="1" y2="0" gradientUnits="userSpaceOnUse" gradientTransform="matrix(401.069,0,0,-401.069,2648.73,697.33)" spreadMethod="pad" id="linearGradient158">
      <stop style="stop-opacity:1;stop-color:#51ade5" offset="0" id="stop154"/>
      <stop style="stop-opacity:1;stop-color:#51ade5" offset="1" id="stop156"/>
    </linearGradient>
    <clipPath clipPathUnits="userSpaceOnUse" id="clipPath168">
      <path d="m 3505.76,974.832 h -61.04 L 3175.57,728.551 v 246.281 h -48.67 v -555 h 48.67 v 251.18 l 76.34,70.519 L 3462.1,422 l 1.43,-2.168 h 57.6 l -233.16,354.09 z" id="path166"/>
    </clipPath>
    <linearGradient x1="0" y1="0" x2="1" y2="0" gradientUnits="userSpaceOnUse" gradientTransform="matrix(394.235,0,0,-394.235,3126.9,697.33)" spreadMethod="pad" id="linearGradient174">
      <stop style="stop-opacity:1;stop-color:#51ade5" offset="0" id="stop170"/>
      <stop style="stop-opacity:1;stop-color:#51ade5" offset="1" id="stop172"/>
    </linearGradient>
    <clipPath clipPathUnits="userSpaceOnUse" id="clipPath184">
      <path d="M 0,0 H 3939 V 2356 H 0 Z" id="path182"/>
    </clipPath>
    <clipPath clipPathUnits="userSpaceOnUse" id="clipPath190">
      <path d="m 3885.43,974.832 -154.46,-238.23 -154.58,236.058 -1.42,2.172 h -58.36 l 186.77,-285.371 0.15,-269.629 h 48.67 v 267.457 l 186.88,287.543 z" id="path188"/>
    </clipPath>
    <linearGradient x1="0" y1="0" x2="1" y2="0" gradientUnits="userSpaceOnUse" gradientTransform="matrix(422.476,0,0,-422.476,3516.61,697.33)" spreadMethod="pad" id="linearGradient196">
      <stop style="stop-opacity:1;stop-color:#51ade5" offset="0" id="stop192"/>
      <stop style="stop-opacity:1;stop-color:#51ade5" offset="1" id="stop194"/>
    </linearGradient>
  </defs>
  <g id="g8" transform="matrix(1.3333330154418945, 0, 0, -1.3333330154418945, 11.12936687469481, 355.5498352050781)">
    <g id="g10" transform="scale(0.1)">
      <g id="g12">
        <g id="g14" clip-path="url(#clipPath18)">
          <g id="g20" clip-path="url(#clipPath24)"/>
        </g>
      </g>
      <g id="g36">
        <g id="g38" clip-path="url(#clipPath42)"/>
      </g>
      <g id="g52">
        <g id="g54" clip-path="url(#clipPath58)"/>
      </g>
      <g id="g70">
        <g id="g72" clip-path="url(#clipPath76)"/>
      </g>
      <g id="g86">
        <g id="g88" clip-path="url(#clipPath92)"/>
      </g>
      <g id="g102">
        <g id="g104" clip-path="url(#clipPath108)"/>
      </g>
      <g id="g118">
        <g id="g120" clip-path="url(#clipPath124)"/>
      </g>
      <path d="M 901.362 500.896 L 715.464 500.896 L 808.78 778.654 L 901.362 500.896 Z M 785.808 857.197 L 598.956 302.197 L 648.147 302.197 L 700.495 456.127 L 916.276 456.127 L 967.065 302.197 L 1018.608 302.197 L 834.144 857.197 L 785.808 857.197" style="fill:#3db83d;fill-opacity:1;fill-rule:nonzero;stroke:none" id="path134"/>
      <path d="M 1327.604 385.564 L 1125.741 854.295 L 1124.491 857.197 L 1077.464 857.197 L 1077.464 302.197 L 1126.136 302.197 L 1126.136 730.705 L 1311.167 302.197 L 1344.05 302.197 L 1529.085 732.197 L 1529.085 302.197 L 1577.757 302.197 L 1577.757 857.197 L 1530.726 857.197 L 1327.604 385.564" style="fill:#3db83d;fill-opacity:1;fill-rule:nonzero;stroke:none" id="path136"/>
      <path d="M 1938.196 500.896 L 1752.296 500.896 L 1845.606 778.654 L 1938.196 500.896 Z M 1822.636 857.197 L 1635.786 302.197 L 1684.976 302.197 L 1737.326 456.127 L 1953.106 456.127 L 2003.896 302.197 L 2055.436 302.197 L 1870.966 857.197 L 1822.636 857.197" style="fill:#3db83d;fill-opacity:1;fill-rule:nonzero;stroke:none" id="path138"/>
      <path d="M 2086.936 857.197 L 2086.936 812.424 L 2386.796 812.424 L 2071.316 331.877 L 2071.316 302.197 L 2445.816 302.197 L 2445.816 346.967 L 2139.696 346.967 L 2453.626 826.326 L 2454.416 827.513 L 2454.416 857.197 L 2086.936 857.197" style="fill:#3db83d;fill-opacity:1;fill-rule:nonzero;stroke:none" id="path140"/>
      <path d="M 2833.076 489.806 C 2833.076 395.865 2769.966 332.756 2676.036 332.756 C 2580.626 332.756 2518.986 394.404 2518.986 489.806 C 2518.986 583.736 2582.096 646.853 2676.036 646.853 C 2769.966 646.853 2833.076 583.736 2833.076 489.806 Z M 2676.036 682.646 C 2560.696 682.646 2483.196 605.146 2483.196 489.806 C 2483.196 374.467 2560.696 296.967 2676.036 296.967 C 2791.376 296.967 2868.876 374.467 2868.876 489.806 C 2868.876 605.146 2791.376 682.646 2676.036 682.646" style="fill:#f14d25;fill-opacity:1;fill-rule:nonzero;stroke:none" id="path142"/>
      <path d="M 3149.416 677.404 L 3149.416 372.603 L 2955.036 675.197 L 2953.616 677.404 L 2919.996 677.404 L 2919.996 302.197 L 2955.796 302.197 L 2955.796 607.506 L 3151.596 302.197 L 3185.206 302.197 L 3185.206 677.404 L 3149.416 677.404" style="fill:#f14d25;fill-opacity:1;fill-rule:nonzero;stroke:none" id="path144"/>
      <g id="g146" transform="matrix(1, 0, 0, 1, 598.955994, -117.634674)">
        <g id="g148" clip-path="url(#clipPath152)">
          <path d="m 2860.56,723.84 c -81.5,18.699 -158.47,36.359 -158.47,108.672 0,74.886 79.91,101.457 148.34,101.457 58.82,0 104.39,-17.637 152.35,-59 l 7.95,-6.848 v 58.051 l -1.73,1.437 c -31.92,26.61 -92.4,55.032 -166.39,55.032 -50.12,0 -96.34,-13.211 -130.13,-37.219 -38.64,-27.442 -59.06,-67.301 -59.06,-115.262 0,-107.57 102.37,-130.918 192.68,-151.519 79.72,-18.18 155.02,-35.36 155.02,-104.762 0,-65.59 -66.33,-113.188 -157.72,-113.188 -85.37,0 -153.79,41.989 -186.98,67.008 l -7.69,5.813 V 475.93 l 2.2,-1.41 c 44.18,-28.508 114.13,-62.5 196.37,-62.5 117.34,0 202.5,69.39 202.5,164.98 0,103.422 -96.21,125.488 -189.24,146.84" style="fill:url(#linearGradient158);fill-opacity:1;fill-rule:nonzero;stroke:none" id="path160"/>
        </g>
      </g>
      <g id="g162" transform="matrix(1, 0, 0, 1, 598.955994, -117.634674)">
        <g id="g164" clip-path="url(#clipPath168)">
          <path d="m 3505.76,974.832 h -61.04 L 3175.57,728.551 v 246.281 h -48.67 v -555 h 48.67 v 251.18 l 76.34,70.519 L 3462.1,422 l 1.43,-2.168 h 57.6 l -233.16,354.09 217.79,200.91" style="fill:url(#linearGradient174);fill-opacity:1;fill-rule:nonzero;stroke:none" id="path176"/>
        </g>
      </g>
      <g id="g178" transform="matrix(1, 0, 0, 1, 598.955994, -117.634674)">
        <g id="g180" clip-path="url(#clipPath184)">
          <g id="g186" clip-path="url(#clipPath190)">
            <path d="m 3703,419 v 271 h -1 v 1 h -1 v 2 h -1 v 1 h -1 v 2 h -1 v 1 h -1 v 2 h -1 v 1 h -1 v 2 h -1 v 1 h -1 v 2 h -1 v 1 h -1 v 2 h -1 v 1 h -1 v 2 h -1 v 1 h -1 v 2 h -1 v 2 h -1 v 1 h -1 v 2 h -1 v 1 h -1 v 2 h -1 v 1 h -1 v 2 h -1 v 1 h -1 v 2 h -1 v 1 h -1 v 2 h -1 v 1 h -1 v 2 h -1 v 1 h -1 v 2 h -1 v 1 h -1 v 2 h -1 v 2 h -1 v 1 h -1 v 2 h -1 v 1 h -1 v 2 h -1 v 1 h -1 v 2 h -1 v 1 h -1 v 2 h -1 v 1 h -1 v 2 h -1 v 1 h -1 v 2 h -1 v 1 h -1 v 2 h -1 v 1 h -1 v 2 h -1 v 1 h -1 v 2 h -1 v 2 h -1 v 1 h -1 v 2 h -1 v 1 h -1 v 2 h -1 v 1 h -1 v 2 h -1 v 1 h -1 v 2 h -1 v 1 h -1 v 2 h -1 v 1 h -1 v 2 h -1 v 1 h -1 v 2 h -1 v 1 h -1 v 2 h -1 v 2 h -1 v 1 h -1 v 2 h -1 v 1 h -1 v 2 h -1 v 1 h -1 v 2 h -1 v 1 h -1 v 2 h -1 v 1 h -1 v 2 h -1 v 1 h -1 v 2 h -1 v 1 h -1 v 2 h -1 v 1 h -1 v 2 h -1 v 1 h -1 v 2 h -1 v 2 h -1 v 1 h -1 v 2 h -1 v 1 h -1 v 2 h -1 v 1 h -1 v 2 h -1 v 1 h -1 v 2 h -1 v 1 h -1 v 2 h -1 v 1 h -1 v 2 h -1 v 1 h -1 v 2 h -1 v 1 h -1 v 2 h -1 v 2 h -1 v 1 h -1 v 2 h -1 v 1 h -1 v 2 h -1 v 1 h -1 v 2 h -1 v 1 h -1 v 2 h -1 v 1 h -1 v 2 h -1 v 1 h -1 v 2 h -1 v 1 h -1 v 2 h -1 v 1 h -1 v 2 h -1 v 1 h -1 v 2 h -1 v 2 h -1 v 1 h -1 v 2 h -1 v 1 h -1 v 2 h -1 v 1 h -1 v 2 h -1 v 1 h -1 v 2 h -1 v 1 h -1 v 2 h -1 v 1 h -1 v 2 h -1 v 1 h -1 v 2 h -1 v 1 h -1 v 2 h -1 v 2 h -1 v 1 h -1 v 2 h -1 v 1 h -1 v 2 h -1 v 1 h -1 v 2 h -1 v 1 h -1 v 2 h -1 v 1 h -1 v 2 h -1 v 1 h -1 v 2 h -1 v 1 h -1 v 2 h -1 v 1 h -1 v 2 h -1 v 1 h -1 v 2 h -1 v 2 h -1 v 1 h -1 v 2 h -1 v 1 h -1 v 2 h -1 v 1 h -1 v 2 h -1 v 1 h -1 v 2 h -1 v 1 h -1 v 2 h -1 v 1 h -1 v 2 h -1 v 1 h -1 v 2 h -1 v 1 h -1 v 2 h -1 v 2 h -1 v 1 h -1 v 2 h -1 v 1 h -1 v 2 h -1 v 1 h -1 v 2 h -1 v 1 h -1 v 2 h -1 v 1 h 60 v -1 h 1 v -2 h 1 v -1 h 1 v -2 h 1 v -1 h 1 v -2 h 1 v -1 h 1 v -2 h 1 v -1 h 1 v -2 h 1 v -2 h 1 v -1 h 1 v -2 h 1 v -1 h 1 v -2 h 1 v -1 h 1 v -2 h 1 v -1 h 1 v -2 h 1 v -1 h 1 v -2 h 1 v -1 h 1 v -2 h 1 v -1 h 1 v -2 h 1 v -1 h 1 v -2 h 1 v -1 h 1 v -2 h 1 v -2 h 1 v -1 h 1 v -2 h 1 v -1 h 1 v -2 h 1 v -1 h 1 v -2 h 1 v -1 h 1 v -2 h 1 v -1 h 1 v -2 h 1 v -1 h 1 v -2 h 1 v -1 h 1 v -2 h 1 v -1 h 1 v -2 h 1 v -1 h 1 v -2 h 1 v -2 h 1 v -1 h 1 v -2 h 1 v -1 h 1 v -2 h 1 v -1 h 1 v -2 h 1 v -1 h 1 v -2 h 1 v -1 h 1 v -2 h 1 v -1 h 1 v -2 h 1 v -1 h 1 v -2 h 1 v -1 h 1 v -2 h 1 v -2 h 1 v -1 h 1 v -2 h 1 v -1 h 1 v -2 h 1 v -1 h 1 v -2 h 1 v -1 h 1 v -2 h 1 v -1 h 1 v -2 h 1 v -1 h 1 v -2 h 1 v -1 h 1 v -2 h 1 v -1 h 1 v -2 h 1 v -1 h 1 v -2 h 1 v -2 h 1 v -1 h 1 v -2 h 1 v -1 h 1 v -2 h 1 v -1 h 1 v -2 h 1 v -1 h 1 v -2 h 1 v -1 h 1 v -2 h 1 v -1 h 1 v -2 h 1 v -1 h 1 v -2 h 1 v -1 h 1 v -2 h 1 v -1 h 1 v -2 h 1 v -2 h 1 v -1 h 1 v -2 h 1 v -1 h 1 v -2 h 1 v -1 h 1 v -2 h 1 v -1 h 1 v -2 h 1 v -1 h 1 v -2 h 1 v -1 h 1 v -2 h 1 v -1 h 1 v -2 h 1 v -1 h 1 v -2 h 1 v -1 h 1 v -2 h 1 v -2 h 1 v -1 h 1 v -2 h 1 v -1 h 1 v -2 h 1 v -1 h 1 v -2 h 1 v -1 h 1 v -2 h 1 v -1 h 1 v -2 h 1 v -1 h 1 v -2 h 1 v -1 h 1 v -2 h 1 v -1 h 1 v -2 h 1 v -2 h 1 v -1 h 1 v -2 h 1 v -1 h 1 v -2 h 1 v -1 h 1 v -2 h 1 v -1 h 1 v -2 h 1 v -1 h 1 v -2 h 1 v -1 h 1 v -2 h 1 v -1 h 1 v -2 h 1 v -1 h 2 v 1 h 1 v 2 h 1 v 1 h 1 v 2 h 1 v 1 h 1 v 2 h 1 v 1 h 1 v 2 h 1 v 2 h 1 v 1 h 1 v 2 h 1 v 1 h 1 v 2 h 1 v 1 h 1 v 2 h 1 v 1 h 1 v 2 h 1 v 1 h 1 v 2 h 1 v 2 h 1 v 1 h 1 v 2 h 1 v 1 h 1 v 2 h 1 v 1 h 1 v 2 h 1 v 1 h 1 v 2 h 1 v 1 h 1 v 2 h 1 v 1 h 1 v 2 h 1 v 2 h 1 v 1 h 1 v 2 h 1 v 1 h 1 v 2 h 1 v 1 h 1 v 2 h 1 v 1 h 1 v 2 h 1 v 1 h 1 v 2 h 1 v 2 h 1 v 1 h 1 v 2 h 1 v 1 h 1 v 2 h 1 v 1 h 1 v 2 h 1 v 1 h 1 v 2 h 1 v 1 h 1 v 2 h 1 v 2 h 1 v 1 h 1 v 2 h 1 v 1 h 1 v 2 h 1 v 1 h 1 v 2 h 1 v 1 h 1 v 2 h 1 v 1 h 1 v 2 h 1 v 1 h 1 v 2 h 1 v 2 h 1 v 1 h 1 v 2 h 1 v 1 h 1 v 2 h 1 v 1 h 1 v 2 h 1 v 1 h 1 v 2 h 1 v 1 h 1 v 2 h 1 v 2 h 1 v 1 h 1 v 2 h 1 v 1 h 1 v 2 h 1 v 1 h 1 v 2 h 1 v 1 h 1 v 2 h 1 v 1 h 1 v 2 h 1 v 1 h 1 v 2 h 1 v 2 h 1 v 1 h 1 v 2 h 1 v 1 h 1 v 2 h 1 v 1 h 1 v 2 h 1 v 1 h 1 v 2 h 1 v 1 h 1 v 2 h 1 v 2 h 1 v 1 h 1 v 2 h 1 v 1 h 1 v 2 h 1 v 1 h 1 v 2 h 1 v 1 h 1 v 2 h 1 v 1 h 1 v 2 h 1 v 2 h 1 v 1 h 1 v 2 h 1 v 1 h 1 v 2 h 1 v 1 h 1 v 2 h 1 v 1 h 1 v 2 h 1 v 1 h 1 v 2 h 1 v 1 h 1 v 2 h 1 v 2 h 1 v 1 h 1 v 2 h 1 v 1 h 1 v 2 h 1 v 1 h 1 v 2 h 1 v 1 h 1 v 2 h 1 v 1 h 1 v 2 h 1 v 2 h 1 v 1 h 1 v 2 h 1 v 1 h 1 v 2 h 1 v 1 h 1 v 2 h 1 v 1 h 1 v 2 h 1 v 1 h 1 v 2 h 1 v 1 h 1 v 2 h 1 v 2 h 1 v 1 h 1 v 2 h 55 v -2 h -1 v -2 h -1 v -1 h -1 v -2 h -1 v -1 h -1 v -2 h -1 v -2 h -1 v -1 h -1 v -2 h -1 v -1 h -1 v -2 h -1 v -1 h -1 v -2 h -1 v -1 h -1 v -2 h -1 v -1 h -1 v -2 h -1 v -1 h -1 v -2 h -1 v -2 h -1 v -1 h -1 v -2 h -1 v -1 h -1 v -2 h -1 v -1 h -1 v -2 h -1 v -1 h -1 v -2 h -1 v -1 h -1 v -2 h -1 v -1 h -1 v -2 h -1 v -2 h -1 v -1 h -1 v -2 h -1 v -1 h -1 v -2 h -1 v -1 h -1 v -2 h -1 v -1 h -1 v -2 h -1 v -1 h -1 v -2 h -1 v -1 h -1 v -2 h -1 v -2 h -1 v -1 h -1 v -2 h -1 v -1 h -1 v -2 h -1 v -1 h -1 v -2 h -1 v -1 h -1 v -2 h -1 v -1 h -1 v -2 h -1 v -1 h -1 v -2 h -1 v -2 h -1 v -1 h -1 v -2 h -1 v -1 h -1 v -2 h -1 v -1 h -1 v -2 h -1 v -1 h -1 v -2 h -1 v -1 h -1 v -2 h -1 v -1 h -1 v -2 h -1 v -2 h -1 v -1 h -1 v -2 h -1 v -1 h -1 v -2 h -1 v -1 h -1 v -2 h -1 v -1 h -1 v -2 h -1 v -1 h -1 v -2 h -1 v -1 h -1 v -2 h -1 v -2 h -1 v -1 h -1 v -2 h -1 v -1 h -1 v -2 h -1 v -1 h -1 v -2 h -1 v -1 h -1 v -2 h -1 v -1 h -1 v -2 h -1 v -1 h -1 v -2 h -1 v -2 h -1 v -1 h -1 v -2 h -1 v -1 h -1 v -2 h -1 v -1 h -1 v -2 h -1 v -1 h -1 v -2 h -1 v -1 h -1 v -2 h -1 v -1 h -1 v -2 h -1 v -2 h -1 v -1 h -1 v -2 h -1 v -1 h -1 v -2 h -1 v -1 h -1 v -2 h -1 v -1 h -1 v -2 h -1 v -1 h -1 v -2 h -1 v -1 h -1 v -2 h -1 v -2 h -1 v -1 h -1 v -2 h -1 v -1 h -1 v -2 h -1 v -1 h -1 v -2 h -1 v -1 h -1 v -2 h -1 v -1 h -1 v -2 h -1 v -2 h -1 v -1 h -1 v -2 h -1 v -1 h -1 v -2 h -1 v -1 h -1 v -2 h -1 v -1 h -1 v -2 h -1 v -1 h -1 v -2 h -1 v -1 h -1 v -2 h -1 v -2 h -1 v -1 h -1 v -2 h -1 v -1 h -1 v -2 h -1 v -1 h -1 v -2 h -1 v -1 h -1 v -2 h -1 v -1 h -1 v -2 h -1 v -1 h -1 v -2 h -1 v -2 h -1 v -1 h -1 v -2 h -1 v -1 h -1 v -2 h -1 v -1 h -1 v -2 h -1 v -1 h -1 v -2 h -1 v -1 h -1 v -2 h -1 v -1 h -1 v -2 h -1 v -2 h -1 v -1 h -1 v -2 h -1 v -1 h -1 v -2 h -1 v -1 h -1 v -2 h -1 v -1 h -1 v -2 h -1 v -1 h -1 v -2 h -1 v -1 h -1 v -2 h -1 V 419" style="fill:url(#linearGradient196);fill-opacity:1;fill-rule:nonzero;stroke:none" id="path198"/>
          </g>
        </g>
      </g>
    </g>
  </g>
</svg>